<svg width="542" height="132" viewBox="0 0 542 132" fill="none" xmlns="http://www.w3.org/2000/svg" role="img" aria-labelledby="title desc">
  <title id="title">Fly Time</title>
  <desc id="desc">Fly Time logo on a navy background.</desc>
  <rect width="542" height="132" fill="#071739"/>
  <path d="M44 36H145L130 53H71V68H118L103 85H71V105H44V36Z" fill="#FFE11F"/>
  <path d="M104 67L145 43V62L125 74L145 87V107L104 82V67Z" fill="#FFBA35"/>
  <path d="M159 36H186V105H159V36Z" fill="#F5972E"/>
  <path d="M190 36H221L245 84L270 36H301L258 113C251 126 241 132 226 132H207L217 110H226C231 110 235 108 238 103L190 36Z" fill="url(#flyGradient)"/>
  <path d="M322 36H421C431 36 439 44 439 54C439 64 431 72 421 72H385V105H356V72H322C312 72 304 64 304 54C304 44 312 36 322 36Z" fill="#E3C39D"/>
  <circle cx="455" cy="54" r="18" fill="#E3C39D"/>
  <text x="322" y="106" fill="#E3C39D" font-family="Arial, Helvetica, sans-serif" font-size="82" font-weight="800" letter-spacing="-6">Time</text>
  <defs>
    <linearGradient id="flyGradient" x1="190" y1="36" x2="298" y2="120" gradientUnits="userSpaceOnUse">
      <stop stop-color="#FFE11F"/>
      <stop offset="0.45" stop-color="#FF9A2E"/>
      <stop offset="1" stop-color="#F05A42"/>
    </linearGradient>
  </defs>
</svg>
